<svg version="1.1" id="Layer_1" xmlns="http://www.w3.org/2000/svg" xmlns:xlink="http://www.w3.org/1999/xlink" x="0px" y="0px"
	 width="100%" viewBox="0 0 1637 944" enable-background="new 0 0 1637 944" xml:space="preserve">
<path fill="#FFFFFF" opacity="1.000000" stroke="none" 
	d="
M1601.000000,945.000000 
	C1067.333374,945.000000 534.166687,945.000000 1.000000,945.000000 
	C1.000000,630.333313 1.000000,315.666656 1.000000,1.000000 
	C546.666687,1.000000 1092.333374,1.000000 1638.000000,1.000000 
	C1638.000000,315.666656 1638.000000,630.333313 1638.000000,945.000000 
	C1625.833374,945.000000 1613.666626,945.000000 1601.000000,945.000000 
M1294.129150,489.488312 
	C1297.077637,498.133667 1300.205933,506.724945 1302.836060,515.466064 
	C1303.422974,517.417236 1302.968994,520.403870 1301.788574,522.048279 
	C1293.542236,533.535950 1284.972534,544.791321 1276.525391,556.135376 
	C1275.532593,557.468506 1274.656372,558.888550 1273.905273,560.002625 
	C1289.898315,560.002625 1305.368164,560.074646 1320.836304,559.939209 
	C1323.774902,559.913452 1325.665405,560.634949 1327.378784,563.201416 
	C1332.272461,570.532227 1337.506714,577.635620 1342.604858,584.830017 
	C1346.583740,590.445068 1350.559204,596.062439 1354.945679,602.257019 
	C1355.513184,600.720459 1355.819214,599.992126 1356.053833,599.241455 
	C1360.362549,585.452271 1364.812256,571.704224 1368.867554,557.840820 
	C1369.983643,554.025146 1371.894409,552.213318 1375.661987,551.107971 
	C1390.237427,546.831604 1404.709839,542.204041 1419.850830,537.511963 
	C1418.305420,536.290161 1417.333496,535.448425 1416.289673,534.707947 
	C1407.471558,528.451721 1399.105225,521.367126 1389.688721,516.196960 
	C1379.252563,510.467041 1376.614258,502.788483 1377.728271,491.508057 
	C1378.877930,479.866486 1377.983765,468.023102 1377.983765,455.721832 
	C1365.228027,465.242157 1352.873413,474.268280 1340.776733,483.627625 
	C1337.728882,485.985840 1335.182983,486.299957 1331.741455,484.974426 
	C1325.698975,482.647156 1319.513550,480.688416 1313.376465,478.609344 
	C1305.030884,475.782013 1296.674316,472.986603 1288.122437,470.110229 
	C1288.122437,471.139557 1288.035522,471.495850 1288.135376,471.788422 
	C1290.063843,477.437622 1292.013916,483.079376 1294.129150,489.488312 
z"/>
<path fill="#FF0101" opacity="1.000000" stroke="none" 
	d="
M1294.044434,489.105469 
	C1292.013916,483.079376 1290.063843,477.437622 1288.135376,471.788422 
	C1288.035522,471.495850 1288.122437,471.139557 1288.122437,470.110229 
	C1296.674316,472.986603 1305.030884,475.782013 1313.376465,478.609344 
	C1319.513550,480.688416 1325.698975,482.647156 1331.741455,484.974426 
	C1335.182983,486.299957 1337.728882,485.985840 1340.776733,483.627625 
	C1352.873413,474.268280 1365.228027,465.242157 1377.983765,455.721832 
	C1377.983765,468.023102 1378.877930,479.866486 1377.728271,491.508057 
	C1376.614258,502.788483 1379.252563,510.467041 1389.688721,516.196960 
	C1399.105225,521.367126 1407.471558,528.451721 1416.289673,534.707947 
	C1417.333496,535.448425 1418.305420,536.290161 1419.850830,537.511963 
	C1404.709839,542.204041 1390.237427,546.831604 1375.661987,551.107971 
	C1371.894409,552.213318 1369.983643,554.025146 1368.867554,557.840820 
	C1364.812256,571.704224 1360.362549,585.452271 1356.053833,599.241455 
	C1355.819214,599.992126 1355.513184,600.720459 1354.945679,602.257019 
	C1350.559204,596.062439 1346.583740,590.445068 1342.604858,584.830017 
	C1337.506714,577.635620 1332.272461,570.532227 1327.378784,563.201416 
	C1325.665405,560.634949 1323.774902,559.913452 1320.836304,559.939209 
	C1305.368164,560.074646 1289.898315,560.002625 1273.905273,560.002625 
	C1274.656372,558.888550 1275.532593,557.468506 1276.525391,556.135376 
	C1284.972534,544.791321 1293.542236,533.535950 1301.788574,522.048279 
	C1302.968994,520.403870 1303.422974,517.417236 1302.836060,515.466064 
	C1300.205933,506.724945 1297.077637,498.133667 1294.044434,489.105469 
z"/>
</svg>