<?xml version="1.0" encoding="UTF-8"?>
<svg id="Layer_2" data-name="Layer 2" xmlns="http://www.w3.org/2000/svg" viewBox="0 0 1000 558.55">
  <defs>
    <style>
      .cls-1 {
        font-size: 104.98px;
        letter-spacing: .04em;
      }

      .cls-1, .cls-2, .cls-3, .cls-4 {
        fill: #fff;
      }

      .cls-1, .cls-3, .cls-4 {
        font-family: ConthraxSb-Regular, Conthrax;
      }

      .cls-5 {
        letter-spacing: .02em;
      }

      .cls-6 {
        letter-spacing: -.17em;
      }

      .cls-3 {
        font-size: 95.65px;
      }

      .cls-7 {
        fill: #ea0606;
      }

      .cls-4 {
        font-size: 110.82px;
        letter-spacing: .02em;
      }
    </style>
  </defs>
  <g id="Layer_1-2" data-name="Layer 1">
    <g>
      <g>
        <path class="cls-2" d="m280.78,558.55c-4.7-2.98-9.13-6.53-14.15-8.8-9.63-4.37-19.47-8.38-29.45-11.89-16.69-5.87-33.96-9.42-51.44-12.18-22.15-3.51-44.42-4.11-66.7-3.29-19.96.73-39.77,2.96-59.36,7.58-16.58,3.91-32.66,9-48.4,15.39-.8.33-1.78.5-2.63.38-5.25-.74-9.98-10.61-8.34-15.56,1.49-4.5,1.77-9.42,2.43-14.17,1.82-13.11,3.65-26.22,5.32-39.34,1.04-8.2,1.43-16.51,2.91-24.62.45-2.45,3.15-5.53,5.52-6.4,10.42-3.81,20.96-7.54,31.73-10.12,14.72-3.52,29.59-7.05,44.6-8.6,17.64-1.83,35.49-2.05,53.26-2.05,21.12,0,41.85,3.62,62.4,8.49,18.49,4.38,36.14,10.92,53.18,19.21,4.94,2.4,9.71,4.96,9.41,11.79-.36,8.11-8.96,13.98-16.01,10.17-15.34-8.29-31.93-11.86-48.93-14.46-21.58-3.3-43.2-5.82-65.08-5.48-22.44.35-44.75,2.14-66.59,7.5-12.05,2.95-23.93,6.68-35.75,10.5-2.14.69-4.73,3.36-5.11,5.48-1.3,7.23-1.74,14.62-2.4,21.96-.09.96.49,1.98.84,3.26,8.15-2.17,16-4.75,24.05-6.3,14.12-2.73,28.32-5.07,42.55-7.16,19.18-2.81,38.51-2.4,57.76-.99,23.85,1.74,47.25,5.78,70.2,13.07,14.64,4.65,27.93,12.14,42.27,17.26.99.35,1.91.9,2.9,1.25,4.45,1.58,7.39,1,10.35-3.71,15.05-23.95,41.98-31.76,68.15-24.08,9.31,2.73,16.97,8.64,24.12,14.89,3.13,2.73,4.8,7.13,7.17,10.76,4.09,6.26,7.72,6.97,14.48,3.99,8.76-3.86,17.67-7.44,26.68-10.66,12.78-4.58,25.78-8.55,38.56-13.13,10.94-3.92,21.57-8.73,32.58-12.41,10.21-3.41,24.18,3.28,29.85,12.58,1.5,2.46,2.3,5.09-1.88,6.68-13.17,5-26.19,10.4-39.31,15.52-19.83,7.74-39.71,15.36-59.56,23.05-10.18,3.95-20.36,7.9-30.49,11.98-1.18.47-2.03,1.76-3.04,2.66h-9.05c-.86-1.71-1.82-3.39-2.57-5.15-5.79-13.49-16.5-21.66-30.06-25.55-18.31-5.25-35.1-1.31-48.79,12.18-5.08,5.01-10.08,10.71-10.93,18.52h-7.24Z"/>
        <path class="cls-2" d="m355.86,23.54c0,3.35,0,5.99,0,8.64,0,36.79-.05,73.59.06,110.38.01,3.61-1.02,6.21-3.64,8.7-14.04,13.39-24.61,29.46-33.78,46.33-13.33,24.52-22.52,50.79-29.19,77.78-6.9,27.93-11.78,56.3-13.22,85.15-.01.3-.16.59-.16.88-.07,3.84-1.51,8.56.21,11.27,1.56,2.45,6.56,2.72,10.04,3.96,10.42,3.69,18.33,18.08,17.81,30.71-.48,11.86-6.91,20.08-16.34,25.1-13.43,7.15-26.78,4.48-37.46-7.07-2.33-2.52-3.83-5.93-5.26-9.13-1.18-2.63-3.03-2.98-5.45-2.86-17.5.89-34.29-2.86-50.06-9.84-15.58-6.9-29.19-17.07-40.88-29.67-15.26-16.45-28.02-34.78-40.31-53.44-12.48-18.95-24.03-38.5-33.44-59.16-6.45-14.15-12.15-28.67-17.56-43.26-2.04-5.49-2.55-11.6-3.33-17.48-1.61-12.23-2.95-24.51-4.36-36.77-.15-1.27-.02-2.57-.02-4.69,4.93,3.3,9.08,6.1,13.24,8.88,13.44,8.98,26.88,17.97,40.34,26.92,10.61,7.05,21.29,14,31.83,21.15,1.29.88,2.32,2.64,2.76,4.2,6.32,22.07,11.9,44.38,18.94,66.21,6.31,19.55,15.31,38.03,25.75,55.82,6.76,11.53,14.55,22.19,23.72,31.87,9.21,9.71,19.83,17.46,32.11,22.9,2.67,1.18,4.44.98,5.71-2.04,1.38-3.28,3.24-6.36,4.61-9-6.49-7.5-13.43-14.41-19.04-22.27-7.91-11.09-15.12-22.71-22.11-34.41-6.47-10.81-12.52-21.89-18.28-33.1-7.95-15.49-15.12-31.27-19.96-48.16-10.77-37.59-12.3-75.63-7.42-114.15,2.56-20.17,6.29-40.14,12.09-59.62,4.41-14.82,9.36-29.51,14.79-43.99,3.71-9.9,8.67-19.33,13.66-30.26,3.84,9.19,7.12,17,10.38,24.83,5.69,13.67,11.36,27.35,17.04,41.02,7.06,17.01,14.17,33.99,21.08,51.06.72,1.78.85,4.23.27,6.05-6.34,19.88-12.76,39.73-19.39,59.51-5.46,16.28-7.35,33.13-7.98,50.11-.84,22.65.45,45.28,5.62,67.37,4.41,18.83,10.09,37.36,15.58,55.92,1.82,6.16,4.6,12.06,7.29,17.91,2.27,4.94,3.6,5.17,8.48,2.71,1.85-.93,5.1-1.6,5.29-2.78.31-1.88-1.7-4.02-2.23-6.17-3.95-16.03-8.17-32.01-11.53-48.17-4.71-22.65-6.88-45.65-5.64-68.77,1.33-24.67,4.69-49.12,12.55-72.68,5.17-15.51,10.31-31.07,16.55-46.16,4.04-9.76,9.89-18.79,15.18-28,11.61-20.21,25.31-38.95,40.76-56.37,6.62-7.46,13.75-14.47,20.71-21.62.77-.79,1.91-1.22,3.55-2.22Z"/>
      </g>
      <g>
        <text class="cls-4" transform="translate(397.94 252.45)"><tspan x="0" y="0">ERNEST</tspan></text>
        <text class="cls-1" transform="translate(397.94 351.97)"><tspan x="0" y="0">LINKS</tspan></text>
        <text class="cls-3" transform="translate(397.94 444.95)"><tspan class="cls-5" x="0" y="0">CONSU</tspan><tspan class="cls-6" x="454.25" y="0">L</tspan><tspan class="cls-5" x="514.6" y="0">T</tspan></text>
        <polygon class="cls-7" points="835.44 276.37 870.58 288.29 900.32 266.1 899.85 303.2 930.15 324.63 894.71 335.64 883.7 371.08 862.27 340.78 825.16 341.26 847.36 311.52 835.44 276.37"/>
      </g>
    </g>
  </g>
</svg>