<svg xmlns="http://www.w3.org/2000/svg" width="151" height="38" viewBox="0 0 151 38" fill="none"><path d="M0 6C8.83656 6 16 13.1634 16 22V31H11C4.92487 31 0 26.0751 0 20V6Z" fill="#FF8888"></path><path d="M14 12C14 5.37258 19.3726 0 26 0H28V26C28 32.6274 22.6274 38 16 38H8.5C12.0216 34.4784 14 29.7021 14 24.7218V12Z" fill="#FB3937"></path><path d="M0 18H1.92308C9.14526 18 15 23.8547 15 31.0769V31.5714C15 35.1218 12.1218 38 8.57143 38C3.83756 38 0 34.1624 0 29.4286V18Z" fill="#DD0A0A"></path><path d="M49.44 31.455C47.725 31.455 46.1325 31.1225 44.6625 30.4575C43.2042 29.7925 41.9325 28.8767 40.8475 27.71C39.7625 26.5317 38.9167 25.1725 38.31 23.6325C37.7033 22.0925 37.4 20.4533 37.4 18.715C37.4 16.8367 37.7325 15.1275 38.3975 13.5875C39.0742 12.0475 39.9842 10.7175 41.1275 9.5975C42.2825 8.46583 43.5833 7.59667 45.03 6.99C46.4883 6.38333 47.9933 6.08 49.545 6.08C51.2483 6.08 52.9283 6.47667 54.585 7.27C56.2417 8.06333 57.735 9.34667 59.065 11.12L54.375 13.64C53.6633 12.835 52.8817 12.2458 52.03 11.8725C51.19 11.4875 50.3383 11.295 49.475 11.295C48.6 11.295 47.7542 11.4758 46.9375 11.8375C46.1208 12.1992 45.3917 12.7125 44.75 13.3775C44.1083 14.0425 43.595 14.8358 43.21 15.7575C42.8367 16.6792 42.65 17.7 42.65 18.82C42.65 19.8467 42.825 20.8092 43.175 21.7075C43.5367 22.6058 44.0325 23.3933 44.6625 24.07C45.2925 24.735 46.0217 25.26 46.85 25.645C47.6783 26.0183 48.565 26.205 49.51 26.205C50.0467 26.205 50.5775 26.135 51.1025 25.995C51.6392 25.8433 52.1583 25.6217 52.66 25.33C53.1617 25.0383 53.6342 24.665 54.0775 24.21C54.5208 23.755 54.9233 23.2183 55.285 22.6H51.995V18.05H61.48C61.5733 19.8817 61.3225 21.6083 60.7275 23.23C60.1442 24.84 59.2983 26.2633 58.19 27.5C57.0817 28.7367 55.7808 29.705 54.2875 30.405C52.7942 31.105 51.1783 31.455 49.44 31.455ZM82.148 6.5V11.75H75.148V31H69.898V11.75H62.898V6.5H82.148ZM85.6439 31V6.5H94.9189C96.2606 6.5 97.4739 6.78 98.5589 7.34C99.6439 7.88833 100.501 8.67 101.131 9.685C101.773 10.7 102.094 11.89 102.094 13.255C102.094 13.7683 102.03 14.3108 101.901 14.8825C101.773 15.4425 101.546 15.9675 101.219 16.4575C100.892 16.9475 100.426 17.3325 99.8189 17.6125C100.601 17.7992 101.219 18.1492 101.674 18.6625C102.129 19.1758 102.467 19.7708 102.689 20.4475C102.922 21.1125 103.074 21.7892 103.144 22.4775C103.214 23.1542 103.249 23.7667 103.249 24.315C103.249 25.5517 102.916 26.6775 102.251 27.6925C101.586 28.6958 100.694 29.5008 99.5739 30.1075C98.4539 30.7025 97.2173 31 95.8639 31H85.6439ZM90.8939 26.555H95.3039C95.9106 26.555 96.4589 26.415 96.9489 26.135C97.4506 25.8433 97.8473 25.4467 98.1389 24.945C98.4423 24.4433 98.5939 23.8717 98.5939 23.23C98.5939 22.6933 98.4423 22.1858 98.1389 21.7075C97.8473 21.2175 97.4506 20.8208 96.9489 20.5175C96.4589 20.2142 95.9106 20.0625 95.3039 20.0625H90.8939V26.555ZM90.8939 15.6875H94.2889C94.9889 15.6875 95.5898 15.4542 96.0914 14.9875C96.5931 14.5208 96.8439 13.9317 96.8439 13.22C96.8439 12.4967 96.5931 11.9425 96.0914 11.5575C95.5898 11.1725 94.9889 10.98 94.2889 10.98H90.8939V15.6875ZM116.503 31.455C114.543 31.455 112.81 30.9767 111.305 30.02C109.812 29.0633 108.639 27.78 107.788 26.17C106.948 24.5483 106.528 22.7517 106.528 20.78V6.5H111.778V20.78C111.778 21.7717 111.964 22.6817 112.338 23.51C112.711 24.3267 113.248 24.98 113.948 25.47C114.659 25.96 115.511 26.205 116.503 26.205C117.506 26.205 118.358 25.9658 119.058 25.4875C119.758 24.9975 120.289 24.3442 120.65 23.5275C121.012 22.6992 121.193 21.7833 121.193 20.78V6.5H126.443V20.78C126.443 22.2617 126.204 23.65 125.725 24.945C125.247 26.2283 124.564 27.36 123.678 28.34C122.791 29.32 121.741 30.0842 120.528 30.6325C119.314 31.1808 117.973 31.455 116.503 31.455ZM139.619 31.455C138.242 31.455 136.924 31.2392 135.664 30.8075C134.404 30.3642 133.301 29.7342 132.356 28.9175C131.411 28.0892 130.729 27.1033 130.309 25.96L135.244 24.14C135.36 24.4783 135.617 24.805 136.014 25.12C136.422 25.435 136.935 25.6975 137.554 25.9075C138.172 26.1058 138.86 26.205 139.619 26.205C140.319 26.205 140.978 26.1058 141.596 25.9075C142.214 25.6975 142.716 25.4117 143.101 25.05C143.486 24.6883 143.679 24.2683 143.679 23.79C143.679 23.3 143.474 22.8975 143.066 22.5825C142.669 22.2558 142.156 21.9992 141.526 21.8125C140.908 21.6142 140.272 21.4683 139.619 21.375C137.845 21.1183 136.253 20.6983 134.841 20.115C133.441 19.52 132.333 18.7033 131.516 17.665C130.711 16.6267 130.309 15.3083 130.309 13.71C130.309 12.1817 130.74 10.8458 131.604 9.7025C132.467 8.5475 133.604 7.64917 135.016 7.0075C136.439 6.36583 137.974 6.045 139.619 6.045C140.995 6.045 142.314 6.26667 143.574 6.71C144.845 7.14167 145.954 7.77167 146.899 8.6C147.844 9.42833 148.52 10.42 148.929 11.575L143.994 13.36C143.877 13.0217 143.614 12.7008 143.206 12.3975C142.809 12.0825 142.302 11.8258 141.684 11.6275C141.065 11.4292 140.377 11.33 139.619 11.33C138.942 11.3183 138.294 11.4175 137.676 11.6275C137.058 11.8375 136.55 12.1233 136.154 12.485C135.757 12.8467 135.559 13.255 135.559 13.71C135.559 14.34 135.745 14.8125 136.119 15.1275C136.492 15.4308 136.982 15.6467 137.589 15.775C138.207 15.9033 138.884 16.02 139.619 16.125C141.299 16.37 142.844 16.8075 144.256 17.4375C145.668 18.0675 146.799 18.9075 147.651 19.9575C148.503 21.0075 148.929 22.285 148.929 23.79C148.929 25.3183 148.497 26.66 147.634 27.815C146.782 28.9583 145.65 29.8508 144.239 30.4925C142.827 31.1342 141.287 31.455 139.619 31.455Z" fill="#231F20"></path></svg>