<svg xmlns="http://www.w3.org/2000/svg" width="148" height="38" viewBox="0 0 148 38" fill="none"><path d="M0 6C8.83656 6 16 13.1634 16 22V31H11C4.92487 31 0 26.0751 0 20V6Z" fill="#00DDD0"></path><path d="M14 12C14 5.37258 19.3726 0 26 0H28V26C28 32.6274 22.6274 38 16 38H8.5C12.0216 34.4784 14 29.7021 14 24.7218V12Z" fill="url(#paint0_linear_98_2)"></path><path d="M0 18H1.92308C9.14526 18 15 23.8547 15 31.0769V31.5714C15 35.1218 12.1218 38 8.57143 38C3.83756 38 0 34.1624 0 29.4286V18Z" fill="url(#paint1_linear_98_2)"></path><path d="M51.744 33.533C49.735 33.533 47.8695 33.1435 46.1475 32.3645C44.4392 31.5855 42.9495 30.5127 41.6785 29.146C40.4075 27.7657 39.4167 26.1735 38.706 24.3695C37.9953 22.5655 37.64 20.6453 37.64 18.609C37.64 16.4087 38.0295 14.4065 38.8085 12.6025C39.6012 10.7985 40.6672 9.2405 42.0065 7.9285C43.3595 6.60283 44.8833 5.58467 46.578 4.874C48.2863 4.16333 50.0493 3.808 51.867 3.808C53.8623 3.808 55.8303 4.27267 57.771 5.202C59.7117 6.13133 61.461 7.63466 63.019 9.712L57.525 12.664C56.6913 11.721 55.7757 11.0308 54.778 10.5935C53.794 10.1425 52.7963 9.917 51.785 9.917C50.76 9.917 49.7692 10.1288 48.8125 10.5525C47.8558 10.9762 47.0017 11.5775 46.25 12.3565C45.4983 13.1355 44.897 14.0648 44.446 15.1445C44.0087 16.2242 43.79 17.42 43.79 18.732C43.79 19.9347 43.995 21.0622 44.405 22.1145C44.8287 23.1668 45.4095 24.0893 46.1475 24.882C46.8855 25.661 47.7397 26.276 48.71 26.727C49.6803 27.1643 50.719 27.383 51.826 27.383C52.4547 27.383 53.0765 27.301 53.6915 27.137C54.3202 26.9593 54.9283 26.6997 55.516 26.358C56.1037 26.0163 56.6572 25.579 57.1765 25.046C57.6958 24.513 58.1673 23.8843 58.591 23.16H54.737V17.83H65.848C65.9573 19.9757 65.6635 21.9983 64.9665 23.898C64.2832 25.784 63.2923 27.4513 61.994 28.9C60.6957 30.3487 59.1718 31.483 57.4225 32.303C55.6732 33.123 53.7803 33.533 51.744 33.533ZM81.2457 18.65H77.7607V33H71.6107V18.65H68.9457V12.5H71.6107V6.063H77.7607V12.5H81.2457V18.65ZM96.2614 11.926C98.2567 11.926 100.074 12.4112 101.714 13.3815C103.354 14.3518 104.66 15.657 105.63 17.297C106.6 18.9233 107.085 20.7273 107.085 22.709C107.085 24.1987 106.805 25.5995 106.245 26.9115C105.685 28.2235 104.906 29.3783 103.908 30.376C102.924 31.36 101.776 32.1322 100.464 32.6925C99.1655 33.2528 97.7647 33.533 96.2614 33.533C95.1817 33.533 94.2114 33.3007 93.3504 32.836C92.4894 32.3713 91.7377 31.7837 91.0954 31.073V33H84.9454V2.25H91.0954V14.386C91.7377 13.6617 92.4894 13.074 93.3504 12.623C94.2114 12.1583 95.1817 11.926 96.2614 11.926ZM96.1794 27.588C97.0267 27.588 97.7989 27.3693 98.4959 26.932C99.1929 26.4947 99.7464 25.907 100.156 25.169C100.566 24.431 100.771 23.611 100.771 22.709C100.771 21.8207 100.566 21.0075 100.156 20.2695C99.7464 19.5315 99.1929 18.9438 98.4959 18.5065C97.7989 18.0555 97.0267 17.83 96.1794 17.83C95.3457 17.83 94.5804 18.0555 93.8834 18.5065C93.2 18.9438 92.6534 19.5315 92.2434 20.2695C91.8334 21.0075 91.6284 21.8207 91.6284 22.709C91.6284 23.611 91.8334 24.431 92.2434 25.169C92.6534 25.907 93.2 26.4947 93.8834 26.932C94.5804 27.3693 95.3457 27.588 96.1794 27.588ZM108.749 25.5585V12.5H114.899V23.8365C114.899 24.4788 115.057 25.0665 115.371 25.5995C115.685 26.1188 116.102 26.5357 116.621 26.85C117.154 27.1507 117.735 27.301 118.364 27.301C119.006 27.301 119.587 27.1507 120.106 26.85C120.639 26.5357 121.056 26.1188 121.357 25.5995C121.671 25.0665 121.828 24.4788 121.828 23.8365V12.5H127.978L127.999 33H121.849L121.828 31.6675C121.145 32.2552 120.366 32.713 119.491 33.041C118.617 33.369 117.694 33.533 116.724 33.533C115.262 33.533 113.922 33.1777 112.706 32.467C111.503 31.7427 110.54 30.7792 109.815 29.5765C109.105 28.3738 108.749 27.0345 108.749 25.5585ZM138.015 33.369C136.977 33.2733 135.979 33.0478 135.022 32.6925C134.066 32.3372 133.212 31.852 132.46 31.237C131.708 30.622 131.114 29.8703 130.676 28.982L135.842 26.768C135.979 26.9183 136.17 27.1097 136.416 27.342C136.662 27.5607 136.97 27.7588 137.339 27.9365C137.722 28.1142 138.179 28.203 138.712 28.203C139.068 28.203 139.409 28.1688 139.737 28.1005C140.079 28.0185 140.352 27.8818 140.557 27.6905C140.776 27.4992 140.885 27.2327 140.885 26.891C140.885 26.5083 140.742 26.2213 140.455 26.03C140.182 25.825 139.847 25.6815 139.45 25.5995C139.054 25.5038 138.685 25.4287 138.343 25.374C137.127 25.1827 135.959 24.8 134.838 24.226C133.731 23.6383 132.822 22.8798 132.111 21.9505C131.401 21.0075 131.045 19.9073 131.045 18.65C131.045 17.2423 131.408 16.026 132.132 15.001C132.856 13.976 133.799 13.1902 134.961 12.6435C136.136 12.0832 137.4 11.803 138.753 11.803C140.352 11.803 141.828 12.131 143.181 12.787C144.548 13.443 145.669 14.386 146.543 15.616L141.705 18.486C141.541 18.281 141.336 18.076 141.09 17.871C140.858 17.6523 140.585 17.4678 140.27 17.3175C139.97 17.1535 139.642 17.051 139.286 17.01C138.808 16.969 138.378 16.9895 137.995 17.0715C137.626 17.1398 137.332 17.2902 137.113 17.5225C136.895 17.7412 136.785 18.0623 136.785 18.486C136.785 18.8823 136.977 19.1693 137.359 19.347C137.742 19.5247 138.173 19.6545 138.651 19.7365C139.129 19.8185 139.519 19.9073 139.819 20.003C140.995 20.3857 142.102 20.8845 143.14 21.4995C144.179 22.1145 145.013 22.8593 145.641 23.734C146.284 24.6087 146.584 25.6337 146.543 26.809C146.543 28.1757 146.133 29.3783 145.313 30.417C144.493 31.4557 143.434 32.2415 142.136 32.7745C140.838 33.3075 139.464 33.5057 138.015 33.369Z" fill="white"></path><defs><linearGradient id="paint0_linear_98_2" x1="-1.11276" y1="22.919" x2="28.5584" y2="21.1961" gradientUnits="userSpaceOnUse"><stop stop-color="#0050FF"></stop><stop offset="1" stop-color="#00E9CC"></stop></linearGradient><linearGradient id="paint1_linear_98_2" x1="-1.11276" y1="22.919" x2="28.5584" y2="21.1961" gradientUnits="userSpaceOnUse"><stop stop-color="#0050FF"></stop><stop offset="1" stop-color="#00E9CC"></stop></linearGradient></defs></svg>