<svg xmlns="http://www.w3.org/2000/svg" width="162" height="42" viewBox="0 0 162 42" fill="none"><path d="M0 6.63158C9.76834 6.63158 17.6872 14.5491 17.6872 24.3158V34.2632H12.1599C5.44418 34.2632 0 28.8199 0 22.1053V6.63158Z" fill="#CDC0F7"></path><path d="M15.4763 13.2632C15.4763 5.93812 21.4154 0 28.7416 0H30.9525V28.7368C30.9525 36.0619 25.0134 42 17.6872 42H9.3963C13.2892 38.1077 15.4763 32.8286 15.4763 27.3241V13.2632Z" fill="#F6EFFD"></path><path d="M0 19.8947H2.12586C10.1096 19.8947 16.5817 26.3658 16.5817 34.3482V34.8947C16.5817 38.8189 13.4 42 9.47526 42C4.24222 42 0 37.7585 0 32.5263V19.8947Z" fill="white"></path><path d="M57.2002 37.0628C54.9794 37.0628 52.9172 36.6323 51.0136 35.7713C49.1251 34.9103 47.4784 33.7245 46.0734 32.214C44.6684 30.6884 43.573 28.9286 42.7874 26.9347C42.0018 24.9408 41.609 22.8185 41.609 20.5678C41.609 18.1359 42.0396 15.923 42.9007 13.9291C43.777 11.9352 44.9554 10.2132 46.436 8.76308C47.9316 7.29787 49.6161 6.17252 51.4895 5.38705C53.378 4.60158 55.3269 4.20884 57.3362 4.20884C59.542 4.20884 61.7175 4.72242 63.8628 5.74958C66.0081 6.77673 67.9419 8.43831 69.6642 10.7343L63.5908 13.9971C62.6693 12.9548 61.657 12.192 60.5542 11.7086C59.4664 11.2101 58.3635 10.9609 57.2456 10.9609C56.1125 10.9609 55.0172 11.195 53.9596 11.6633C52.9021 12.1316 51.9579 12.7962 51.1269 13.6572C50.296 14.5182 49.6313 15.5453 49.1327 16.7387C48.6492 17.932 48.4075 19.2537 48.4075 20.7038C48.4075 22.0331 48.6341 23.2792 49.0874 24.4423C49.5557 25.6054 50.1978 26.6251 51.0136 27.5012C51.8294 28.3622 52.7737 29.0419 53.8463 29.5404C54.919 30.0237 56.0672 30.2654 57.2909 30.2654C57.9859 30.2654 58.6733 30.1748 59.3531 29.9935C60.0481 29.7972 60.7204 29.5102 61.37 29.1325C62.0196 28.7549 62.6315 28.2715 63.2056 27.6824C63.7797 27.0933 64.3009 26.3985 64.7692 25.5979H60.5089V19.7068H72.7915C72.9123 22.0784 72.5875 24.3139 71.817 26.4136C71.0616 28.4981 69.9663 30.3409 68.5311 31.9421C67.0958 33.5433 65.4113 34.797 63.4775 35.7033C61.5437 36.6096 59.4513 37.0628 57.2002 37.0628Z" fill="white"></path><path d="M89.8129 20.6132H85.9604V36.4737H79.1619V20.6132H76.2159V13.8158H79.1619V6.70121H85.9604V13.8158H89.8129V20.6132Z" fill="white"></path><path d="M106.412 13.1814C108.618 13.1814 110.627 13.7176 112.44 14.7901C114.253 15.8626 115.696 17.3051 116.768 19.1177C117.841 20.9153 118.377 22.9092 118.377 25.0994C118.377 26.7459 118.067 28.2942 117.448 29.7443C116.829 31.1944 115.967 32.4708 114.865 33.5735C113.777 34.661 112.508 35.5145 111.057 36.1338C109.622 36.7531 108.074 37.0628 106.412 37.0628C105.218 37.0628 104.146 36.806 103.194 36.2924C102.242 35.7788 101.411 35.1293 100.701 34.3438V36.4737H93.9026V2.48684H100.701V15.9003C101.411 15.0997 102.242 14.4502 103.194 13.9517C104.146 13.4382 105.218 13.1814 106.412 13.1814ZM106.321 30.492C107.258 30.492 108.111 30.2503 108.882 29.7669C109.652 29.2836 110.264 28.6341 110.718 27.8184C111.171 27.0027 111.397 26.0964 111.397 25.0994C111.397 24.1176 111.171 23.2188 110.718 22.4031C110.264 21.5874 109.652 20.9379 108.882 20.4546C108.111 19.9561 107.258 19.7068 106.321 19.7068C105.4 19.7068 104.554 19.9561 103.783 20.4546C103.028 20.9379 102.423 21.5874 101.97 22.4031C101.517 23.2188 101.29 24.1176 101.29 25.0994C101.29 26.0964 101.517 27.0027 101.97 27.8184C102.423 28.6341 103.028 29.2836 103.783 29.7669C104.554 30.2503 105.4 30.492 106.321 30.492Z" fill="white"></path><path d="M120.217 28.2489V13.8158H127.015V26.3456C127.015 27.0556 127.189 27.7051 127.536 28.2942C127.884 28.8682 128.345 29.3289 128.919 29.6763C129.508 30.0086 130.15 30.1748 130.845 30.1748C131.555 30.1748 132.197 30.0086 132.771 29.6763C133.36 29.3289 133.821 28.8682 134.154 28.2942C134.501 27.7051 134.675 27.0556 134.675 26.3456V13.8158H141.473L141.496 36.4737H134.697L134.675 35.0009C133.919 35.6504 133.058 36.1565 132.091 36.519C131.124 36.8815 130.105 37.0628 129.032 37.0628C127.416 37.0628 125.935 36.67 124.59 35.8846C123.261 35.084 122.196 34.0191 121.395 32.6898C120.609 31.3606 120.217 29.8802 120.217 28.2489Z" fill="white"></path><path d="M152.569 36.8815C151.42 36.7758 150.318 36.5266 149.26 36.1338C148.203 35.7411 147.258 35.2048 146.427 34.5251C145.596 33.8454 144.939 33.0146 144.456 32.0327L150.167 29.5857C150.318 29.7518 150.529 29.9633 150.801 30.2201C151.073 30.4618 151.413 30.6808 151.821 30.8772C152.244 31.0736 152.75 31.1717 153.339 31.1717C153.732 31.1717 154.11 31.134 154.472 31.0584C154.85 30.9678 155.152 30.8168 155.379 30.6053C155.62 30.3938 155.741 30.0993 155.741 29.7216C155.741 29.2987 155.583 28.9815 155.265 28.77C154.963 28.5434 154.593 28.3848 154.155 28.2942C153.717 28.1884 153.309 28.1054 152.931 28.0449C151.587 27.8335 150.295 27.4105 149.056 26.7761C147.832 26.1266 146.828 25.2882 146.042 24.2611C145.257 23.2188 144.864 22.0028 144.864 20.6132C144.864 19.0573 145.264 17.7129 146.065 16.5801C146.865 15.4472 147.908 14.5786 149.192 13.9744C150.491 13.3551 151.889 13.0454 153.384 13.0454C155.152 13.0454 156.784 13.4079 158.279 14.133C159.79 14.8581 161.029 15.9003 161.996 17.2598L156.648 20.4319C156.466 20.2053 156.24 19.9787 155.968 19.7522C155.711 19.5105 155.409 19.3066 155.061 19.1404C154.729 18.9591 154.366 18.8458 153.974 18.8005C153.445 18.7552 152.969 18.7779 152.546 18.8685C152.138 18.944 151.813 19.1102 151.572 19.367C151.33 19.6087 151.209 19.9636 151.209 20.4319C151.209 20.8699 151.42 21.1872 151.844 21.3835C152.267 21.5799 152.742 21.7234 153.271 21.814C153.8 21.9047 154.231 22.0028 154.563 22.1086C155.862 22.5315 157.086 23.0829 158.234 23.7626C159.382 24.4423 160.304 25.2656 160.999 26.2323C161.709 27.1991 162.041 28.3319 161.996 29.631C161.996 31.1415 161.543 32.4708 160.636 33.6188C159.73 34.7668 158.559 35.6353 157.124 36.2244C155.688 36.8136 154.17 37.0326 152.569 36.8815Z" fill="white"></path></svg>